<mxfile host="app.diagrams.net" modified="2023-09-17T19:21:25.704Z" agent="Mozilla/5.0 (Windows NT 10.0; Win64; x64) AppleWebKit/537.36 (KHTML, like Gecko) Chrome/115.0.0.0 Safari/537.36 OPR/101.0.0.0 (Edition std-1)" version="21.7.4" etag="1k7LPrPy1My2-a5V95P8" type="github">
  <diagram name="PÃ¡gina-1" id="GAjcVDtGhSdDXgjR74TV">
    <mxGraphModel>
      <root>
        <mxCell id="0" />
        <mxCell id="1" parent="0" />
      </root>
    </mxGraphModel>
  </diagram>
</mxfile>
